<?xml version="1.0" encoding="UTF-8"?>
<svg width="512" height="512" viewBox="0 0 512 512" xmlns="http://www.w3.org/2000/svg">
  <defs>
    <!-- Градиент от темно-синего к темно-бирюзовому -->
    <linearGradient id="bg" x1="0%" y1="0%" x2="100%" y2="0%">
      <stop offset="0%" stop-color="#1E3A8A"/>
      <stop offset="100%" stop-color="#0D9488"/>
    </linearGradient>
  </defs>
  
  <!-- Круглый фон -->
  <circle cx="256" cy="256" r="240" fill="url(#bg)"/>
  
  <!-- Звуковые волны -->
  <rect x="140" y="220" width="12" height="72" rx="6" fill="white"/>
  <rect x="165" y="190" width="12" height="132" rx="6" fill="white"/>
  <rect x="190" y="160" width="12" height="192" rx="6" fill="white"/>
  <rect x="215" y="200" width="12" height="112" rx="6" fill="white"/>
  <rect x="240" y="230" width="12" height="52" rx="6" fill="white"/>
  
  <!-- Плавный переход -->
  <path d="M 252 180 Q 280 200 280 256 Q 280 312 252 332" fill="white" opacity="0.9"/>
  
  <!-- Текстовые линии -->
  <rect x="300" y="200" width="120" height="12" rx="6" fill="white"/>
  <rect x="300" y="230" width="100" height="12" rx="6" fill="white"/>
  <rect x="300" y="260" width="110" height="12" rx="6" fill="white"/>
  <rect x="300" y="290" width="90" height="12" rx="6" fill="white"/>
</svg>

